<svg width="1905" height="4277" viewBox="0 0 1905 4277" fill="none" xmlns="http://www.w3.org/2000/svg">
<path d="M9.99996 0H1867.04C1877.31 0 1880.91 13.64 1871.96 18.7024L31.4565 1060.63C24.6754 1064.47 24.696 1074.24 31.4933 1078.06L1899.89 2125.38C1903.05 2127.15 1905 2130.48 1905 2134.1V4266.96C1905 4272.5 1900.5 4276.98 1894.96 4276.96L41.5617 4268.66C31.3138 4268.62 27.759 4255.02 36.673 4249.96L1880.99 3203.91C1887.78 3200.06 1887.74 3190.25 1880.91 3186.47L5.14797 2145.61C1.97085 2143.85 0 2140.5 0 2136.87V10C0 4.47715 4.47711 0 9.99996 0Z" fill="#F7F7F9"/>
</svg>
